<?xml version="1.0" standalone="no"?>
<!DOCTYPE svg PUBLIC "-//W3C//DTD SVG 20010904//EN"
 "http://www.w3.org/TR/2001/REC-SVG-20010904/DTD/svg10.dtd">
<svg version="1.0" xmlns="http://www.w3.org/2000/svg"
 width="470" height="565" viewBox="0 0 4700 5650"
 preserveAspectRatio="xMidYMid meet">
<metadata>
Created by potrace 1.16, written by Peter Selinger 2001-2019
</metadata>
<g transform="translate(0.000000,565.000000) scale(0.100000,-0.100000)"
fill="#5b4dc0" stroke="none">
<path d="M2315 5578 c-49 -128 -72 -189 -145 -378 -115 -300 -228 -596 -280
-735 -62 -167 -212 -558 -284 -745 -31 -80 -77 -197 -101 -260 -24 -63 -80
-207 -124 -320 -44 -113 -118 -306 -164 -430 -47 -124 -147 -387 -223 -585
-202 -530 -234 -618 -230 -622 2 -2 23 7 47 20 24 13 132 73 239 132 261 144
562 310 745 410 83 46 231 128 331 183 250 139 218 130 299 84 39 -22 185
-102 325 -179 140 -77 406 -223 590 -325 510 -281 601 -330 604 -326 1 1 -36
104 -84 228 -48 124 -129 335 -180 470 -51 135 -119 313 -151 395 -31 83 -121
317 -199 520 -78 204 -183 476 -232 605 -50 129 -112 291 -138 360 -26 69 -71
186 -99 260 -29 74 -63 164 -76 200 -13 36 -44 119 -70 185 -47 121 -118 305
-180 470 -143 375 -172 449 -181 452 -6 2 -23 -29 -39 -69z"/>
<path d="M1850 5121 c-600 -113 -1201 -526 -1512 -1041 -166 -274 -250 -503
-309 -845 -18 -106 -23 -168 -23 -340 0 -216 9 -296 55 -515 43 -200 157 -483
263 -653 70 -113 212 -307 224 -307 5 0 50 109 101 242 51 134 115 300 143
370 l50 128 -52 119 c-95 223 -126 400 -117 675 5 174 21 265 75 431 134 410
455 775 849 965 101 49 102 50 121 102 57 149 222 580 240 624 29 73 34 71
-108 45z"/>
<path d="M2746 5088 c17 -58 263 -705 284 -748 6 -14 59 -56 117 -95 115 -77
269 -213 355 -315 58 -69 171 -236 207 -308 69 -136 132 -337 157 -497 30
-200 11 -481 -47 -676 l-30 -101 59 -151 c33 -84 101 -263 153 -399 52 -136
97 -248 100 -248 4 0 29 33 56 73 201 292 332 645 384 1032 17 131 7 460 -20
596 -50 265 -112 448 -226 674 -118 233 -250 412 -436 590 -97 93 -227 201
-289 240 -19 12 -69 44 -110 70 -147 95 -423 213 -608 260 -118 30 -115 30
-106 3z"/>
<path d="M3283 1637 c-100 -84 -284 -188 -429 -246 -479 -189 -1018 -131
-1462 159 l-94 60 -80 -45 c-44 -25 -82 -45 -84 -45 -5 0 -437 -240 -444 -246
-2 -3 12 -19 31 -37 380 -343 791 -537 1273 -602 193 -26 513 -17 689 19 222
46 369 95 564 187 56 27 106 49 111 49 10 0 45 -37 271 -285 111 -122 398
-430 443 -477 190 -194 472 -157 590 77 35 69 48 182 29 251 -17 63 -53 110
-244 314 -97 104 -239 258 -316 342 -76 84 -154 167 -172 184 -19 18 -133 86
-254 152 -121 65 -258 140 -304 166 -46 25 -85 46 -86 46 -2 0 -16 -11 -32
-23z"/>
</g>
</svg>
