<?xml version="1.0" standalone="no"?>
<!DOCTYPE svg PUBLIC "-//W3C//DTD SVG 20010904//EN"
 "http://www.w3.org/TR/2001/REC-SVG-20010904/DTD/svg10.dtd">
<svg version="1.0" xmlns="http://www.w3.org/2000/svg"
 width="1280.000000pt" height="853.000000pt" viewBox="0 0 1280.000000 853.000000"
 preserveAspectRatio="xMidYMid meet">
<metadata>
Created by potrace 1.16, written by Peter Selinger 2001-2019
</metadata>
<g transform="translate(0.000000,853.000000) scale(0.100000,-0.100000)"
fill="#000000" stroke="none">
<path d="M0 4265 l0 -4265 6400 0 6400 0 0 4265 0 4265 -6400 0 -6400 0 0
-4265z m6486 2839 c42 -109 93 -244 114 -299 89 -234 121 -317 165 -430 26
-66 57 -149 70 -185 13 -36 47 -126 76 -200 28 -74 73 -191 99 -260 26 -69 88
-231 138 -360 49 -129 154 -401 232 -605 78 -203 168 -437 199 -520 32 -82
100 -260 151 -395 51 -135 132 -346 180 -470 48 -124 85 -227 84 -228 -3 -4
-94 45 -604 326 -184 102 -450 248 -590 325 -140 77 -286 157 -325 179 -81 46
-49 55 -299 -84 -100 -55 -248 -137 -331 -183 -183 -100 -484 -266 -745 -410
-107 -59 -215 -119 -239 -132 -24 -13 -45 -22 -47 -20 -4 4 28 92 230 622 76
198 176 461 223 585 46 124 120 317 164 430 44 113 100 257 124 320 24 63 70
180 101 260 72 187 222 578 284 745 60 161 190 503 265 695 31 80 65 168 75
195 36 98 109 285 115 296 4 6 9 8 11 6 2 -2 38 -93 80 -203z m-463 -320 c3
-3 -3 -29 -15 -58 -18 -44 -183 -475 -240 -624 -19 -52 -20 -53 -121 -102
-394 -190 -715 -555 -849 -965 -54 -166 -70 -257 -75 -431 -9 -275 22 -452
117 -675 l52 -119 -50 -128 c-28 -70 -92 -236 -143 -369 -51 -134 -96 -243
-101 -243 -12 0 -154 194 -224 307 -106 170 -220 453 -263 653 -46 219 -55
299 -55 515 0 225 16 354 70 569 97 387 292 727 578 1012 334 332 764 564
1196 645 112 20 115 21 123 13z m879 -49 c185 -47 461 -165 608 -260 41 -26
91 -58 110 -70 62 -39 192 -147 289 -240 186 -178 318 -357 436 -590 114 -226
176 -409 226 -674 27 -136 37 -465 20 -596 -52 -387 -183 -740 -384 -1032 -27
-40 -52 -73 -56 -73 -3 0 -48 112 -100 248 -52 136 -120 315 -153 399 l-59
151 30 101 c58 195 77 476 47 676 -25 160 -88 361 -157 497 -36 72 -149 239
-207 308 -86 102 -240 238 -355 315 -58 39 -111 81 -117 95 -21 43 -267 690
-284 748 -9 27 -12 27 106 -3z m549 -3471 c46 -26 183 -101 304 -166 121 -66
235 -134 254 -152 18 -17 96 -100 172 -184 77 -84 219 -238 316 -342 191 -204
227 -251 244 -314 19 -69 6 -182 -29 -251 -118 -234 -400 -271 -590 -77 -45
47 -332 355 -443 477 -226 248 -261 285 -271 285 -5 0 -55 -22 -111 -49 -195
-92 -342 -141 -564 -187 -176 -36 -496 -45 -689 -19 -482 65 -893 259 -1273
602 -19 18 -33 34 -31 37 7 6 439 246 444 246 2 0 40 20 84 45 l80 45 94 -60
c557 -363 1233 -358 1788 13 41 28 88 61 103 74 16 12 30 23 32 23 1 0 40 -21
86 -46z"/>
</g>
</svg>
