<svg xmlns="http://www.w3.org/2000/svg" viewBox="0 0 40 40" fill="none">
  <defs>
    <linearGradient id="grad" x1="0%" y1="0%" x2="100%" y2="100%">
      <stop offset="0%" style="stop-color:#6366f1"/>
      <stop offset="100%" style="stop-color:#8b5cf6"/>
    </linearGradient>
    <linearGradient id="lens" x1="0%" y1="0%" x2="100%" y2="100%">
      <stop offset="0%" style="stop-color:#818cf8;stop-opacity:0.15"/>
      <stop offset="100%" style="stop-color:#c084fc;stop-opacity:0.25"/>
    </linearGradient>
  </defs>
  <!-- 돋보기 원 -->
  <circle cx="17" cy="17" r="12" stroke="url(#grad)" stroke-width="3" fill="url(#lens)"/>
  <!-- 돋보기 손잡이 -->
  <line x1="26" y1="26" x2="35" y2="35" stroke="url(#grad)" stroke-width="3" stroke-linecap="round"/>
  <!-- AI 뉴런 노드들 -->
  <circle cx="12" cy="14" r="2" fill="#6366f1"/>
  <circle cx="20" cy="11" r="2" fill="#8b5cf6"/>
  <circle cx="17" cy="20" r="2.5" fill="#7c3aed"/>
  <circle cx="22" cy="18" r="1.5" fill="#a78bfa"/>
  <circle cx="13" cy="21" r="1.5" fill="#a78bfa"/>
  <!-- 뉴런 연결선 -->
  <line x1="12" y1="14" x2="17" y2="20" stroke="#8b5cf6" stroke-width="0.8" opacity="0.6"/>
  <line x1="20" y1="11" x2="17" y2="20" stroke="#8b5cf6" stroke-width="0.8" opacity="0.6"/>
  <line x1="17" y1="20" x2="22" y2="18" stroke="#7c3aed" stroke-width="0.8" opacity="0.6"/>
  <line x1="17" y1="20" x2="13" y2="21" stroke="#7c3aed" stroke-width="0.8" opacity="0.6"/>
  <line x1="12" y1="14" x2="20" y2="11" stroke="#a78bfa" stroke-width="0.6" opacity="0.4"/>
  <line x1="22" y1="18" x2="20" y2="11" stroke="#a78bfa" stroke-width="0.6" opacity="0.4"/>
  <!-- 스파크 -->
  <circle cx="8" cy="8" r="1" fill="#f59e0b" opacity="0.8"/>
  <circle cx="25" cy="7" r="0.7" fill="#f59e0b" opacity="0.6"/>
</svg>
